<svg xmlns="http://www.w3.org/2000/svg" xmlns:xlink="http://www.w3.org/1999/xlink" width="500" zoomAndPan="magnify" viewBox="0 0 375 374.999991" height="500" preserveAspectRatio="xMidYMid meet" version="1.0"><defs><g/><clipPath id="5d9611e838"><path d="M 17 135 L 104 135 L 104 183 L 17 183 Z M 17 135 " clip-rule="nonzero"/></clipPath><clipPath id="34f8278ac1"><path d="M 20.480469 130.136719 L 106.199219 141.40625 L 100.136719 187.507812 L 14.417969 176.238281 Z M 20.480469 130.136719 " clip-rule="nonzero"/></clipPath><clipPath id="b35634d266"><path d="M 63.3125 135.769531 C 39.65625 132.65625 19.121094 140.457031 17.449219 153.1875 C 15.777344 165.917969 33.597656 178.757812 57.253906 181.867188 C 80.910156 184.980469 101.441406 177.179688 103.117188 164.449219 C 104.789062 151.71875 86.96875 138.878906 63.3125 135.769531 Z M 63.3125 135.769531 " clip-rule="nonzero"/></clipPath><clipPath id="a21fbb90a7"><path d="M 17 135 L 104 135 L 104 183 L 17 183 Z M 17 135 " clip-rule="nonzero"/></clipPath><clipPath id="58eabd74ac"><path d="M 20.480469 130.136719 L 105.992188 141.378906 L 99.933594 187.480469 L 14.417969 176.238281 Z M 20.480469 130.136719 " clip-rule="nonzero"/></clipPath><clipPath id="173dc8cc58"><path d="M 18.746094 129.90625 L 107.609375 141.589844 L 101.425781 188.636719 L 12.558594 176.953125 Z M 18.746094 129.90625 " clip-rule="nonzero"/></clipPath><clipPath id="e593969090"><path d="M 63.3125 135.765625 C 39.660156 132.65625 19.128906 140.453125 17.457031 153.183594 C 15.785156 165.910156 33.601562 178.75 57.253906 181.859375 C 80.902344 184.96875 101.433594 177.171875 103.109375 164.445312 C 104.78125 151.714844 86.964844 138.878906 63.3125 135.765625 Z M 63.3125 135.765625 " clip-rule="nonzero"/></clipPath><clipPath id="ae1f6b7dee"><path d="M 21 139 L 108 139 L 108 180 L 21 180 Z M 21 139 " clip-rule="nonzero"/></clipPath><clipPath id="20677c38b3"><path d="M 24.320312 134.730469 L 110.007812 145.996094 L 104.972656 184.277344 L 19.289062 173.011719 Z M 24.320312 134.730469 " clip-rule="nonzero"/></clipPath><clipPath id="86f0c96c4e"><path d="M 67.15625 140.359375 C 43.5 137.25 23.195312 143.300781 21.804688 153.871094 C 20.414062 164.441406 38.464844 175.53125 62.121094 178.640625 C 85.777344 181.753906 106.082031 175.703125 107.472656 165.132812 C 108.863281 154.5625 90.8125 143.472656 67.15625 140.359375 Z M 67.15625 140.359375 " clip-rule="nonzero"/></clipPath><clipPath id="734437e605"><path d="M 21 139 L 108 139 L 108 180 L 21 180 Z M 21 139 " clip-rule="nonzero"/></clipPath><clipPath id="311381f800"><path d="M 24.320312 134.730469 L 109.835938 145.972656 L 104.847656 183.894531 L 19.335938 172.652344 Z M 24.320312 134.730469 " clip-rule="nonzero"/></clipPath><clipPath id="36501fcdeb"><path d="M 22.589844 134.5 L 111.449219 146.183594 L 106.410156 184.515625 L 17.546875 172.835938 Z M 22.589844 134.5 " clip-rule="nonzero"/></clipPath><clipPath id="7d17d8417f"><path d="M 67.152344 140.359375 C 43.503906 137.25 23.203125 143.296875 21.816406 153.867188 C 20.425781 164.433594 38.472656 175.523438 62.121094 178.632812 C 85.773438 181.742188 106.074219 175.695312 107.460938 165.128906 C 108.851562 154.558594 90.804688 143.46875 67.152344 140.359375 Z M 67.152344 140.359375 " clip-rule="nonzero"/></clipPath><clipPath id="620eda3b2a"><path d="M 60 112 L 308 112 L 308 286 L 60 286 Z M 60 112 " clip-rule="nonzero"/></clipPath><clipPath id="d9b103393a"><path d="M 94.460938 111.582031 L 308.910156 194.785156 L 273.171875 286.898438 L 58.71875 203.691406 Z M 94.460938 111.582031 " clip-rule="nonzero"/></clipPath><clipPath id="1972ca58c2"><path d="M 98.65625 113.207031 L 304.398438 193.035156 C 305.511719 193.46875 306.40625 194.324219 306.886719 195.414062 C 307.371094 196.507812 307.398438 197.746094 306.964844 198.859375 L 274.484375 282.582031 C 274.050781 283.691406 273.195312 284.589844 272.101562 285.070312 C 271.011719 285.550781 269.773438 285.578125 268.660156 285.148438 L 62.914062 205.320312 C 61.804688 204.890625 60.90625 204.035156 60.425781 202.941406 C 59.945312 201.847656 59.917969 200.609375 60.347656 199.496094 L 92.832031 115.777344 C 93.730469 113.457031 96.335938 112.308594 98.65625 113.207031 Z M 98.65625 113.207031 " clip-rule="nonzero"/></clipPath><clipPath id="314e7bd6ba"><path d="M 60 112 L 308 112 L 308 286 L 60 286 Z M 60 112 " clip-rule="nonzero"/></clipPath><clipPath id="af7defed0f"><path d="M 94.460938 111.582031 L 308.417969 194.59375 L 272.609375 286.890625 L 58.648438 203.878906 Z M 94.460938 111.582031 " clip-rule="nonzero"/></clipPath><clipPath id="daed6bc335"><path d="M 94.460938 111.582031 L 309.128906 194.871094 L 272.886719 288.277344 L 58.21875 204.988281 Z M 94.460938 111.582031 " clip-rule="nonzero"/></clipPath><clipPath id="dbac141952"><path d="M 98.652344 113.210938 L 304.386719 193.03125 C 305.5 193.464844 306.394531 194.320312 306.878906 195.414062 C 307.359375 196.503906 307.386719 197.742188 306.953125 198.855469 L 274.472656 282.574219 C 274.042969 283.6875 273.1875 284.582031 272.09375 285.0625 C 271 285.542969 269.761719 285.574219 268.652344 285.140625 L 62.917969 205.316406 C 61.804688 204.886719 60.910156 204.03125 60.425781 202.9375 C 59.945312 201.847656 59.917969 200.609375 60.347656 199.496094 L 92.832031 115.777344 C 93.730469 113.460938 96.335938 112.3125 98.652344 113.210938 Z M 98.652344 113.210938 " clip-rule="nonzero"/></clipPath><clipPath id="8208aa4958"><path d="M 64 109 L 308 109 L 308 250 L 64 250 Z M 64 109 " clip-rule="nonzero"/></clipPath><clipPath id="e076095bae"><path d="M 83.375 108.402344 L 308.925781 153.554688 L 289.53125 250.433594 L 63.980469 205.28125 Z M 83.375 108.402344 " clip-rule="nonzero"/></clipPath><clipPath id="042fa879b2"><path d="M 87.789062 109.285156 L 304.183594 152.601562 C 305.351562 152.835938 306.382812 153.527344 307.042969 154.519531 C 307.703125 155.511719 307.945312 156.730469 307.710938 157.898438 L 290.082031 245.953125 C 289.847656 247.125 289.160156 248.152344 288.167969 248.816406 C 287.171875 249.476562 285.957031 249.71875 284.789062 249.484375 L 68.394531 206.164062 C 67.222656 205.929688 66.195312 205.242188 65.53125 204.25 C 64.871094 203.253906 64.628906 202.039062 64.863281 200.871094 L 82.492188 112.8125 C 82.980469 110.375 85.351562 108.796875 87.789062 109.285156 Z M 87.789062 109.285156 " clip-rule="nonzero"/></clipPath><clipPath id="ad575537c5"><path d="M 64 109 L 308 109 L 308 250 L 64 250 Z M 64 109 " clip-rule="nonzero"/></clipPath><clipPath id="f3b77aaa0e"><path d="M 83.375 108.402344 L 308.410156 153.449219 L 288.976562 250.523438 L 63.941406 205.476562 Z M 83.375 108.402344 " clip-rule="nonzero"/></clipPath><clipPath id="6405e7a380"><path d="M 83.375 108.402344 L 309.15625 153.601562 L 289.492188 251.84375 L 63.707031 206.644531 Z M 83.375 108.402344 " clip-rule="nonzero"/></clipPath><clipPath id="ddba0fe7d7"><path d="M 87.789062 109.285156 L 304.171875 152.601562 C 305.339844 152.835938 306.371094 153.527344 307.03125 154.519531 C 307.695312 155.511719 307.933594 156.726562 307.699219 157.898438 L 290.074219 245.949219 C 289.839844 247.121094 289.148438 248.148438 288.15625 248.8125 C 287.164062 249.472656 285.949219 249.710938 284.777344 249.476562 L 68.394531 206.160156 C 67.222656 205.925781 66.195312 205.238281 65.535156 204.246094 C 64.871094 203.25 64.632812 202.035156 64.867188 200.867188 L 82.492188 112.816406 C 82.980469 110.378906 85.351562 108.796875 87.789062 109.285156 Z M 87.789062 109.285156 " clip-rule="nonzero"/></clipPath><clipPath id="1d1401a234"><path d="M 72.65625 122.878906 L 302.683594 122.878906 L 302.683594 221.683594 L 72.65625 221.683594 Z M 72.65625 122.878906 " clip-rule="nonzero"/></clipPath><clipPath id="f288dc416b"><path d="M 77.15625 122.878906 L 297.84375 122.878906 C 299.035156 122.878906 300.179688 123.355469 301.027344 124.199219 C 301.871094 125.042969 302.34375 126.1875 302.34375 127.378906 L 302.34375 217.183594 C 302.34375 218.375 301.871094 219.519531 301.027344 220.363281 C 300.179688 221.207031 299.035156 221.683594 297.84375 221.683594 L 77.15625 221.683594 C 75.964844 221.683594 74.820312 221.207031 73.972656 220.363281 C 73.128906 219.519531 72.65625 218.375 72.65625 217.183594 L 72.65625 127.378906 C 72.65625 124.894531 74.671875 122.878906 77.15625 122.878906 Z M 77.15625 122.878906 " clip-rule="nonzero"/></clipPath><clipPath id="a7dfeeb48b"><path d="M 72.65625 122.882812 L 302.15625 122.882812 L 302.15625 221.878906 L 72.65625 221.878906 Z M 72.65625 122.882812 " clip-rule="nonzero"/></clipPath><clipPath id="e544e6bd71"><path d="M 77.15625 122.882812 L 297.832031 122.882812 C 299.027344 122.882812 300.171875 123.355469 301.015625 124.199219 C 301.859375 125.042969 302.332031 126.1875 302.332031 127.378906 L 302.332031 217.179688 C 302.332031 218.371094 301.859375 219.515625 301.015625 220.359375 C 300.171875 221.203125 299.027344 221.679688 297.832031 221.679688 L 77.15625 221.679688 C 75.960938 221.679688 74.816406 221.203125 73.972656 220.359375 C 73.128906 219.515625 72.65625 218.371094 72.65625 217.179688 L 72.65625 127.378906 C 72.65625 124.894531 74.671875 122.882812 77.15625 122.882812 Z M 77.15625 122.882812 " clip-rule="nonzero"/></clipPath><clipPath id="1c88a0a394"><path d="M 78.996094 160.289062 L 102.984375 160.289062 L 102.984375 184.273438 L 78.996094 184.273438 Z M 78.996094 160.289062 " clip-rule="nonzero"/></clipPath><clipPath id="fbbb03c860"><path d="M 90.992188 160.289062 C 84.367188 160.289062 78.996094 165.65625 78.996094 172.28125 C 78.996094 178.90625 84.367188 184.273438 90.992188 184.273438 C 97.613281 184.273438 102.984375 178.90625 102.984375 172.28125 C 102.984375 165.65625 97.613281 160.289062 90.992188 160.289062 Z M 90.992188 160.289062 " clip-rule="nonzero"/></clipPath></defs><g clip-path="url(#5d9611e838)"><g clip-path="url(#34f8278ac1)"><g clip-path="url(#b35634d266)"><path fill="#ffffff" d="M 20.480469 130.136719 L 106.199219 141.40625 L 100.136719 187.507812 L 14.417969 176.238281 Z M 20.480469 130.136719 " fill-opacity="1" fill-rule="nonzero"/></g></g></g><g clip-path="url(#a21fbb90a7)"><g clip-path="url(#58eabd74ac)"><g clip-path="url(#173dc8cc58)"><g clip-path="url(#e593969090)"><path stroke-linecap="butt" transform="matrix(0.743601, 0.0977647, -0.0977647, 0.743601, 20.48698, 130.137003)" fill="none" stroke-linejoin="miter" d="M 57.591769 -0.00245162 C 25.783968 -0.00203938 -0.00233191 13.873507 0.0001278 30.993216 C 0.00190859 48.107762 25.786046 61.98492 57.593847 61.984507 C 89.396484 61.984774 115.182784 48.109228 115.186167 30.994003 C 115.183707 13.874294 89.400249 0.00230003 57.591769 -0.00245162 Z M 57.591769 -0.00245162 " stroke="#000000" stroke-width="8" stroke-opacity="1" stroke-miterlimit="4"/></g></g></g></g><g clip-path="url(#ae1f6b7dee)"><g clip-path="url(#20677c38b3)"><g clip-path="url(#86f0c96c4e)"><path fill="#ffffff" d="M 24.320312 134.730469 L 110.007812 145.996094 L 104.972656 184.277344 L 19.289062 173.011719 Z M 24.320312 134.730469 " fill-opacity="1" fill-rule="nonzero"/></g></g></g><g clip-path="url(#734437e605)"><g clip-path="url(#311381f800)"><g clip-path="url(#36501fcdeb)"><g clip-path="url(#7d17d8417f)"><path stroke-linecap="butt" transform="matrix(0.743601, 0.0977647, -0.0977647, 0.743601, 24.330386, 134.730548)" fill="none" stroke-linejoin="miter" d="M 57.587096 -0.00156035 C 25.784459 -0.00182733 -0.00132826 11.520238 0.0026518 25.734753 C 0.000789031 39.944782 25.785439 51.468459 57.588076 51.468726 C 89.395877 51.468314 115.181664 39.946249 115.178363 25.736898 C 115.179547 11.521704 89.394897 -0.00197229 57.587096 -0.00156035 Z M 57.587096 -0.00156035 " stroke="#000000" stroke-width="8" stroke-opacity="1" stroke-miterlimit="4"/></g></g></g></g><g clip-path="url(#620eda3b2a)"><g clip-path="url(#d9b103393a)"><g clip-path="url(#1972ca58c2)"><path fill="#ffffff" d="M 94.460938 111.582031 L 308.550781 194.644531 L 272.808594 286.757812 L 58.71875 203.691406 Z M 94.460938 111.582031 " fill-opacity="1" fill-rule="nonzero"/></g></g></g><g clip-path="url(#314e7bd6ba)"><g clip-path="url(#af7defed0f)"><g clip-path="url(#daed6bc335)"><g clip-path="url(#dbac141952)"><path stroke-linecap="butt" transform="matrix(0.699215, 0.27129, -0.27129, 0.699215, 94.459042, 111.581945)" fill="none" stroke-linejoin="miter" d="M 5.998132 0.0025173 L 300.232844 -0.00120489 C 301.825827 0.000845451 303.35036 0.632809 304.47997 1.758783 C 305.60284 2.881785 306.234044 4.407842 306.23685 5.998941 L 306.23416 125.732446 C 306.236966 127.323545 305.600147 128.849962 304.477144 129.972832 C 303.349286 131.097586 301.825113 131.733646 300.236987 131.729712 L 6.00039 131.728578 C 4.409291 131.731384 2.884758 131.09942 1.755148 129.973446 C 0.632278 128.850444 0.00107376 127.324387 -0.00173155 125.733289 L 0.000957823 5.999783 C 0.000572769 2.687066 2.685415 0.00290235 5.998132 0.0025173 Z M 5.998132 0.0025173 " stroke="#000000" stroke-width="8" stroke-opacity="1" stroke-miterlimit="4"/></g></g></g></g><g clip-path="url(#8208aa4958)"><g clip-path="url(#e076095bae)"><g clip-path="url(#042fa879b2)"><path fill="#ffffff" d="M 83.375 108.402344 L 308.546875 153.476562 L 289.152344 250.359375 L 63.980469 205.28125 Z M 83.375 108.402344 " fill-opacity="1" fill-rule="nonzero"/></g></g></g><g clip-path="url(#ad575537c5)"><g clip-path="url(#f3b77aaa0e)"><g clip-path="url(#6405e7a380)"><g clip-path="url(#ddba0fe7d7)"><path stroke-linecap="butt" transform="matrix(0.735409, 0.147218, -0.147218, 0.735409, 83.37525, 108.402612)" fill="none" stroke-linejoin="miter" d="M 6.001574 -0.00134986 L 300.236062 -0.0014432 C 301.824398 -0.000703478 303.353604 0.633338 304.476364 1.757743 C 305.604231 2.881125 306.233708 4.407042 306.23399 6.000486 L 306.235819 125.730416 C 306.236101 127.323859 305.601037 128.847958 304.477655 129.975825 C 303.353251 131.098585 301.827334 131.728062 300.23389 131.728344 L 5.999402 131.728438 C 4.405958 131.72872 2.882882 131.098763 1.760122 129.974359 C 0.631233 128.84587 0.00175593 127.319952 0.00249565 125.731616 L 0.000667165 6.001686 C 0.00110072 2.687119 2.687006 -0.00178341 6.001574 -0.00134986 Z M 6.001574 -0.00134986 " stroke="#000000" stroke-width="8" stroke-opacity="1" stroke-miterlimit="4"/></g></g></g></g><g clip-path="url(#1d1401a234)"><g clip-path="url(#f288dc416b)"><path fill="#ffffff" d="M 72.65625 122.878906 L 302.296875 122.878906 L 302.296875 221.683594 L 72.65625 221.683594 Z M 72.65625 122.878906 " fill-opacity="1" fill-rule="nonzero"/></g></g><g clip-path="url(#a7dfeeb48b)"><g clip-path="url(#e544e6bd71)"><path stroke-linecap="butt" transform="matrix(0.75, 0, 0, 0.75, 72.656498, 122.880885)" fill="none" stroke-linejoin="miter" d="M 5.99967 0.00257036 L 300.234064 0.00257036 C 301.827814 0.00257036 303.353856 0.632779 304.478856 1.757779 C 305.603856 2.882779 306.234064 4.408821 306.234064 5.997362 L 306.234064 125.731745 C 306.234064 127.320287 305.603856 128.846329 304.478856 129.971329 C 303.353856 131.096329 301.827814 131.731746 300.234064 131.731746 L 5.99967 131.731746 C 4.405919 131.731746 2.879878 131.096329 1.754878 129.971329 C 0.629878 128.846329 -0.000330839 127.320287 -0.000330839 125.731745 L -0.000330839 5.997362 C -0.000330839 2.684862 2.687169 0.00257036 5.99967 0.00257036 Z M 5.99967 0.00257036 " stroke="#000000" stroke-width="8" stroke-opacity="1" stroke-miterlimit="4"/></g></g><g clip-path="url(#1c88a0a394)"><g clip-path="url(#fbbb03c860)"><path fill="#000000" d="M 78.996094 160.289062 L 102.984375 160.289062 L 102.984375 184.273438 L 78.996094 184.273438 Z M 78.996094 160.289062 " fill-opacity="1" fill-rule="nonzero"/></g></g><g fill="#000000" fill-opacity="1"><g transform="translate(110.400612, 197.412132)"><g><path d="M 10.9375 -23.328125 L 10.9375 -2.65625 C 10.9375 -1.945312 10.679688 -1.328125 10.171875 -0.796875 C 9.660156 -0.265625 9.03125 0 8.28125 0 C 7.53125 0 6.898438 -0.265625 6.390625 -0.796875 C 5.878906 -1.328125 5.625 -1.945312 5.625 -2.65625 L 5.625 -45.71875 C 5.625 -46.425781 5.878906 -47.046875 6.390625 -47.578125 C 6.898438 -48.109375 7.53125 -48.375 8.28125 -48.375 C 9.03125 -48.375 9.660156 -48.109375 10.171875 -47.578125 C 10.679688 -47.046875 10.9375 -46.425781 10.9375 -45.71875 L 10.9375 -28.6875 C 10.9375 -28.332031 11.132812 -28.15625 11.53125 -28.15625 L 35.515625 -28.15625 C 35.910156 -28.15625 36.109375 -28.332031 36.109375 -28.6875 L 36.109375 -45.71875 C 36.109375 -46.425781 36.363281 -47.046875 36.875 -47.578125 C 37.382812 -48.109375 38.015625 -48.375 38.765625 -48.375 C 39.515625 -48.375 40.144531 -48.109375 40.65625 -47.578125 C 41.164062 -47.046875 41.421875 -46.425781 41.421875 -45.71875 L 41.421875 -2.65625 C 41.421875 -1.945312 41.164062 -1.328125 40.65625 -0.796875 C 40.144531 -0.265625 39.515625 0 38.765625 0 C 38.015625 0 37.382812 -0.265625 36.875 -0.796875 C 36.363281 -1.328125 36.109375 -1.945312 36.109375 -2.65625 L 36.109375 -23.328125 C 36.109375 -23.722656 35.910156 -23.921875 35.515625 -23.921875 L 11.53125 -23.921875 C 11.132812 -23.921875 10.9375 -23.722656 10.9375 -23.328125 Z M 10.9375 -23.328125 "/></g></g></g><g fill="#000000" fill-opacity="1"><g transform="translate(157.447157, 197.412132)"><g><path d="M 18.546875 -31.21875 C 15.328125 -31.21875 12.742188 -30.210938 10.796875 -28.203125 C 8.859375 -26.191406 7.800781 -23.375 7.625 -19.75 C 7.625 -19.394531 7.800781 -19.21875 8.15625 -19.21875 L 28.296875 -19.21875 C 28.648438 -19.21875 28.828125 -19.394531 28.828125 -19.75 C 28.648438 -23.414062 27.675781 -26.242188 25.90625 -28.234375 C 24.144531 -30.222656 21.691406 -31.21875 18.546875 -31.21875 Z M 19.21875 0.65625 C 14.269531 0.65625 10.269531 -0.953125 7.21875 -4.171875 C 4.175781 -7.398438 2.65625 -11.753906 2.65625 -17.234375 C 2.65625 -22.796875 4.078125 -27.164062 6.921875 -30.34375 C 9.773438 -33.53125 13.648438 -35.125 18.546875 -35.125 C 23.054688 -35.125 26.613281 -33.753906 29.21875 -31.015625 C 31.820312 -28.273438 33.257812 -24.320312 33.53125 -19.15625 C 33.570312 -18.09375 33.21875 -17.195312 32.46875 -16.46875 C 31.71875 -15.738281 30.8125 -15.375 29.75 -15.375 L 8.15625 -15.375 C 7.800781 -15.375 7.625 -15.195312 7.625 -14.84375 C 7.800781 -11.257812 8.984375 -8.429688 11.171875 -6.359375 C 13.359375 -4.285156 16.195312 -3.25 19.6875 -3.25 C 22.726562 -3.25 25.507812 -3.820312 28.03125 -4.96875 C 28.519531 -5.1875 29.003906 -5.195312 29.484375 -5 C 29.972656 -4.800781 30.304688 -4.457031 30.484375 -3.96875 C 30.660156 -3.445312 30.632812 -2.921875 30.40625 -2.390625 C 30.1875 -1.859375 29.816406 -1.484375 29.296875 -1.265625 C 26.285156 0.015625 22.925781 0.65625 19.21875 0.65625 Z M 19.21875 0.65625 "/></g></g></g><g fill="#000000" fill-opacity="1"><g transform="translate(193.957897, 197.412132)"><g><path d="M 12.71875 -47.109375 L 12.71875 -2.578125 C 12.71875 -1.878906 12.472656 -1.273438 11.984375 -0.765625 C 11.503906 -0.253906 10.910156 0 10.203125 0 C 9.492188 0 8.882812 -0.253906 8.375 -0.765625 C 7.875 -1.273438 7.625 -1.878906 7.625 -2.578125 L 7.625 -47.109375 C 7.625 -47.816406 7.875 -48.425781 8.375 -48.9375 C 8.882812 -49.445312 9.492188 -49.703125 10.203125 -49.703125 C 10.910156 -49.703125 11.503906 -49.445312 11.984375 -48.9375 C 12.472656 -48.425781 12.71875 -47.816406 12.71875 -47.109375 Z M 12.71875 -47.109375 "/></g></g></g><g fill="#000000" fill-opacity="1"><g transform="translate(212.975243, 197.412132)"><g><path d="M 12.71875 -47.109375 L 12.71875 -2.578125 C 12.71875 -1.878906 12.472656 -1.273438 11.984375 -0.765625 C 11.503906 -0.253906 10.910156 0 10.203125 0 C 9.492188 0 8.882812 -0.253906 8.375 -0.765625 C 7.875 -1.273438 7.625 -1.878906 7.625 -2.578125 L 7.625 -47.109375 C 7.625 -47.816406 7.875 -48.425781 8.375 -48.9375 C 8.882812 -49.445312 9.492188 -49.703125 10.203125 -49.703125 C 10.910156 -49.703125 11.503906 -49.445312 11.984375 -48.9375 C 12.472656 -48.425781 12.71875 -47.816406 12.71875 -47.109375 Z M 12.71875 -47.109375 "/></g></g></g><g fill="#000000" fill-opacity="1"><g transform="translate(233.317865, 197.412132)"><g><path d="M 27.140625 -27.46875 C 25.128906 -29.914062 22.378906 -31.140625 18.890625 -31.140625 C 15.398438 -31.140625 12.648438 -29.914062 10.640625 -27.46875 C 8.628906 -25.019531 7.625 -21.609375 7.625 -17.234375 C 7.625 -12.859375 8.628906 -9.441406 10.640625 -6.984375 C 12.648438 -4.535156 15.398438 -3.3125 18.890625 -3.3125 C 22.378906 -3.3125 25.128906 -4.535156 27.140625 -6.984375 C 29.148438 -9.441406 30.15625 -12.859375 30.15625 -17.234375 C 30.15625 -21.609375 29.148438 -25.019531 27.140625 -27.46875 Z M 30.671875 -4.171875 C 27.710938 -0.953125 23.78125 0.65625 18.875 0.65625 C 13.976562 0.65625 10.050781 -0.953125 7.09375 -4.171875 C 4.132812 -7.398438 2.65625 -11.753906 2.65625 -17.234375 C 2.65625 -22.710938 4.132812 -27.0625 7.09375 -30.28125 C 10.050781 -33.507812 13.976562 -35.125 18.875 -35.125 C 23.78125 -35.125 27.710938 -33.507812 30.671875 -30.28125 C 33.640625 -27.0625 35.125 -22.710938 35.125 -17.234375 C 35.125 -11.753906 33.640625 -7.398438 30.671875 -4.171875 Z M 30.671875 -4.171875 "/></g></g></g><g fill="#000000" fill-opacity="1"><g transform="translate(271.087569, 197.412132)"><g><path d="M 13.71875 -14.171875 C 13.226562 -13.691406 12.648438 -13.453125 11.984375 -13.453125 C 11.328125 -13.453125 10.742188 -13.691406 10.234375 -14.171875 C 9.722656 -14.660156 9.46875 -15.238281 9.46875 -15.90625 L 8.953125 -45.265625 C 8.953125 -46.140625 9.25 -46.875 9.84375 -47.46875 C 10.4375 -48.070312 11.148438 -48.375 11.984375 -48.375 C 12.828125 -48.375 13.546875 -48.070312 14.140625 -47.46875 C 14.742188 -46.875 15.046875 -46.140625 15.046875 -45.265625 L 14.453125 -15.90625 C 14.453125 -15.238281 14.207031 -14.660156 13.71875 -14.171875 Z M 9.078125 -2.84375 L 9.078125 -5.296875 C 9.078125 -6.097656 9.363281 -6.773438 9.9375 -7.328125 C 10.507812 -7.878906 11.191406 -8.15625 11.984375 -8.15625 C 12.785156 -8.15625 13.460938 -7.878906 14.015625 -7.328125 C 14.566406 -6.773438 14.84375 -6.097656 14.84375 -5.296875 L 14.84375 -2.84375 C 14.84375 -2.050781 14.566406 -1.378906 14.015625 -0.828125 C 13.460938 -0.273438 12.785156 0 11.984375 0 C 11.191406 0 10.507812 -0.273438 9.9375 -0.828125 C 9.363281 -1.378906 9.078125 -2.050781 9.078125 -2.84375 Z M 9.078125 -2.84375 "/></g></g></g><path stroke-linecap="butt" transform="matrix(0.715452, -0.225006, 0.225006, 0.715452, 46.413318, 176.870657)" fill="none" stroke-linejoin="miter" d="M 0.915672 1.779118 C 34.198288 18.863639 57.506969 18.86154 70.845119 1.779354 " stroke="#000000" stroke-width="4" stroke-opacity="1" stroke-miterlimit="4"/><path stroke-linecap="butt" transform="matrix(0.713613, -0.230774, 0.230774, 0.713613, 48.198349, 172.69351)" fill="none" stroke-linejoin="miter" d="M 0.836898 1.816811 C 31.138572 15.787146 50.653242 15.786555 59.380907 1.815037 " stroke="#000000" stroke-width="4" stroke-opacity="1" stroke-miterlimit="4"/></svg>