<svg xmlns="http://www.w3.org/2000/svg" xmlns:xlink="http://www.w3.org/1999/xlink" width="500" zoomAndPan="magnify" viewBox="0 0 375 374.999991" height="500" preserveAspectRatio="xMidYMid meet" version="1.0"><defs><g/><clipPath id="596b2e5409"><path d="M 0 0 L 187.5 0 L 187.5 375 L 0 375 Z M 0 0 " clip-rule="nonzero"/></clipPath><clipPath id="dc9de06b8b"><path d="M 0 187.5 L 187.5 0 L 187.5 375 Z M 0 187.5 " clip-rule="nonzero"/></clipPath><clipPath id="ba15fde7a9"><path d="M 59.65625 0 L 187.503906 0 L 187.503906 374.996094 L 59.65625 374.996094 Z M 59.65625 0 " clip-rule="nonzero"/></clipPath><clipPath id="d13bbc9b44"><path d="M 59.65625 187.496094 L 187.503906 -0.00390625 L 187.503906 374.996094 Z M 59.65625 187.496094 " clip-rule="nonzero"/></clipPath><clipPath id="a12cc229b2"><path d="M 187.5 0 L 375 0 L 375 375 L 187.5 375 Z M 187.5 0 " clip-rule="nonzero"/></clipPath><clipPath id="1c5851d9fa"><path d="M 375 187.5 L 187.5 375 L 187.5 0 Z M 375 187.5 " clip-rule="nonzero"/></clipPath><clipPath id="c4b7a93f58"><path d="M 187.496094 0 L 315.34375 0 L 315.34375 375 L 187.496094 375 Z M 187.496094 0 " clip-rule="nonzero"/></clipPath><clipPath id="01f4c71c96"><path d="M 315.34375 187.496094 L 187.496094 374.996094 L 187.496094 -0.00390625 Z M 315.34375 187.496094 " clip-rule="nonzero"/></clipPath></defs><g clip-path="url(#596b2e5409)"><g clip-path="url(#dc9de06b8b)"><path fill="#a1e3f9" d="M 0 375 L 0 0 L 187.5 0 L 187.5 375 Z M 0 375 " fill-opacity="1" fill-rule="nonzero"/></g></g><g clip-path="url(#ba15fde7a9)"><g clip-path="url(#d13bbc9b44)"><path fill="#22a2e3" d="M 59.65625 374.996094 L 59.65625 -0.0546875 L 187.503906 -0.0546875 L 187.503906 374.996094 Z M 59.65625 374.996094 " fill-opacity="1" fill-rule="nonzero"/></g></g><g clip-path="url(#a12cc229b2)"><g clip-path="url(#1c5851d9fa)"><path fill="#1848a0" d="M 375 0 L 375 375 L 187.5 375 L 187.5 0 Z M 375 0 " fill-opacity="1" fill-rule="nonzero"/></g></g><g clip-path="url(#c4b7a93f58)"><g clip-path="url(#01f4c71c96)"><path fill="#127bcb" d="M 315.34375 -0.00390625 L 315.34375 375.046875 L 187.496094 375.046875 L 187.496094 -0.00390625 Z M 315.34375 -0.00390625 " fill-opacity="1" fill-rule="nonzero"/></g></g><g fill="#ffffff" fill-opacity="1"><g transform="translate(70.124034, 219.374986)"><g><path d="M 6.515625 -16.921875 L 9.5625 -16.921875 L 11.203125 -8.4375 C 12.359375 -6.96875 14.347656 -5.671875 17.171875 -4.546875 C 20.003906 -3.421875 22.796875 -2.859375 25.546875 -2.859375 C 29.921875 -2.859375 33.332031 -3.972656 35.78125 -6.203125 C 38.238281 -8.441406 39.46875 -11.53125 39.46875 -15.46875 C 39.46875 -17.71875 38.988281 -19.578125 38.03125 -21.046875 C 37.082031 -22.515625 35.832031 -23.753906 34.28125 -24.765625 C 32.738281 -25.785156 30.984375 -26.644531 29.015625 -27.34375 C 27.046875 -28.050781 25.019531 -28.765625 22.9375 -29.484375 C 20.863281 -30.203125 18.84375 -31 16.875 -31.875 C 14.90625 -32.75 13.144531 -33.859375 11.59375 -35.203125 C 10.050781 -36.546875 8.800781 -38.207031 7.84375 -40.1875 C 6.894531 -42.175781 6.421875 -44.625 6.421875 -47.53125 C 6.421875 -52.53125 8.296875 -56.453125 12.046875 -59.296875 C 15.796875 -62.140625 21 -63.5625 27.65625 -63.5625 C 32.71875 -63.5625 38.21875 -62.890625 44.15625 -61.546875 L 44.15625 -48.46875 L 41.109375 -48.46875 L 39.46875 -56.15625 C 36.28125 -58.46875 32.34375 -59.625 27.65625 -59.625 C 23.46875 -59.625 20.191406 -58.769531 17.828125 -57.0625 C 15.472656 -55.363281 14.296875 -53.015625 14.296875 -50.015625 C 14.296875 -47.984375 14.769531 -46.296875 15.71875 -44.953125 C 16.675781 -43.609375 17.925781 -42.457031 19.46875 -41.5 C 21.019531 -40.550781 22.785156 -39.734375 24.765625 -39.046875 C 26.753906 -38.359375 28.785156 -37.644531 30.859375 -36.90625 C 32.941406 -36.175781 34.972656 -35.347656 36.953125 -34.421875 C 38.941406 -33.503906 40.707031 -32.332031 42.25 -30.90625 C 43.800781 -29.488281 45.050781 -27.753906 46 -25.703125 C 46.957031 -23.660156 47.4375 -21.140625 47.4375 -18.140625 C 47.4375 -12.078125 45.578125 -7.378906 41.859375 -4.046875 C 38.140625 -0.722656 32.78125 0.9375 25.78125 0.9375 C 22.40625 0.9375 19.015625 0.640625 15.609375 0.046875 C 12.203125 -0.546875 9.171875 -1.359375 6.515625 -2.390625 Z M 6.515625 -16.921875 "/></g></g><g transform="translate(123.514655, 219.374986)"><g><path d="M 2.765625 -2.484375 L 10.828125 -3.75 L 10.828125 -59.15625 L 2.765625 -60.375 L 2.765625 -62.859375 L 49.921875 -62.859375 L 49.921875 -47.8125 L 46.828125 -47.8125 L 45.328125 -57.984375 C 41.828125 -58.421875 36.765625 -58.640625 30.140625 -58.640625 L 19.875 -58.640625 L 19.875 -34.078125 L 36.84375 -34.078125 L 38.296875 -41.578125 L 41.296875 -41.578125 L 41.296875 -22.265625 L 38.296875 -22.265625 L 36.84375 -29.859375 L 19.875 -29.859375 L 19.875 -4.21875 L 32.25 -4.21875 C 40.3125 -4.21875 45.59375 -4.46875 48.09375 -4.96875 L 50.765625 -16.59375 L 53.859375 -16.59375 L 52.96875 0 L 2.765625 0 Z M 2.765625 -2.484375 "/></g></g><g transform="translate(182.155276, 219.374986)"><g><path d="M 19.875 -28.21875 L 19.875 -3.75 L 30.328125 -2.484375 L 30.328125 0 L 3.375 0 L 3.375 -2.484375 L 10.828125 -3.75 L 10.828125 -59.15625 L 2.765625 -60.375 L 2.765625 -62.859375 L 49.921875 -62.859375 L 49.921875 -47.8125 L 46.828125 -47.8125 L 45.328125 -57.984375 C 41.828125 -58.421875 36.765625 -58.640625 30.140625 -58.640625 L 19.875 -58.640625 L 19.875 -32.4375 L 38.390625 -32.4375 L 39.84375 -39.9375 L 42.703125 -39.9375 L 42.703125 -20.625 L 39.84375 -20.625 L 38.390625 -28.21875 Z M 19.875 -28.21875 "/></g></g><g transform="translate(235.545897, 219.374986)"><g><path d="M 21.609375 -2.484375 L 21.609375 0 L 0.9375 0 L 0.9375 -2.484375 L 8.0625 -3.75 L 29.484375 -63.375 L 38.390625 -63.375 L 60.65625 -3.75 L 68.625 -2.484375 L 68.625 0 L 42.046875 0 L 42.046875 -2.484375 L 50.484375 -3.75 L 44.25 -21.890625 L 19.5 -21.890625 L 13.171875 -3.75 Z M 31.6875 -56.625 L 20.90625 -26.109375 L 42.796875 -26.109375 Z M 31.6875 -56.625 "/></g></g></g></svg>